<mxfile host="Electron" modified="2024-04-03T19:22:24.855Z" agent="Mozilla/5.0 (Windows NT 10.0; Win64; x64) AppleWebKit/537.36 (KHTML, like Gecko) draw.io/24.1.0 Chrome/120.0.6099.109 Electron/28.1.0 Safari/537.36" etag="8en8HFNowhm5XKaN-gzN" version="24.1.0" type="device">
  <diagram name="Page-1" id="cfrqWEWCc6vNaZNA7odI">
    <mxGraphModel dx="1218" dy="1191" grid="1" gridSize="10" guides="1" tooltips="1" connect="1" arrows="1" fold="1" page="1" pageScale="1" pageWidth="850" pageHeight="1100" math="0" shadow="0">
      <root>
        <mxCell id="0" />
        <mxCell id="1" parent="0" />
        <mxCell id="YpNG4ICl5QxOobUSiyVP-1" style="edgeStyle=orthogonalEdgeStyle;rounded=0;orthogonalLoop=1;jettySize=auto;html=1;" edge="1" parent="1" source="YpNG4ICl5QxOobUSiyVP-2" target="YpNG4ICl5QxOobUSiyVP-4">
          <mxGeometry relative="1" as="geometry" />
        </mxCell>
        <mxCell id="YpNG4ICl5QxOobUSiyVP-2" value="Application" style="rounded=0;whiteSpace=wrap;html=1;" vertex="1" parent="1">
          <mxGeometry x="365" y="240" width="120" height="330" as="geometry" />
        </mxCell>
        <mxCell id="YpNG4ICl5QxOobUSiyVP-3" value="Server" style="rounded=0;whiteSpace=wrap;html=1;" vertex="1" parent="1">
          <mxGeometry x="530" y="340" width="120" height="230" as="geometry" />
        </mxCell>
        <mxCell id="YpNG4ICl5QxOobUSiyVP-4" value="RDBMS" style="shape=cylinder3;whiteSpace=wrap;html=1;boundedLbl=1;backgroundOutline=1;size=15;" vertex="1" parent="1">
          <mxGeometry x="393" y="610" width="65" height="80" as="geometry" />
        </mxCell>
        <mxCell id="YpNG4ICl5QxOobUSiyVP-5" value="RDBMS" style="shape=cylinder3;whiteSpace=wrap;html=1;boundedLbl=1;backgroundOutline=1;size=15;" vertex="1" parent="1">
          <mxGeometry x="557.5" y="610" width="65" height="80" as="geometry" />
        </mxCell>
        <mxCell id="YpNG4ICl5QxOobUSiyVP-6" style="edgeStyle=orthogonalEdgeStyle;rounded=0;orthogonalLoop=1;jettySize=auto;html=1;" edge="1" parent="1" source="YpNG4ICl5QxOobUSiyVP-7" target="YpNG4ICl5QxOobUSiyVP-3">
          <mxGeometry relative="1" as="geometry" />
        </mxCell>
        <mxCell id="YpNG4ICl5QxOobUSiyVP-7" value="Client" style="rounded=0;whiteSpace=wrap;html=1;" vertex="1" parent="1">
          <mxGeometry x="530" y="240" width="120" height="60" as="geometry" />
        </mxCell>
        <mxCell id="YpNG4ICl5QxOobUSiyVP-8" value="Monolithic 1" style="text;html=1;align=center;verticalAlign=middle;resizable=0;points=[];autosize=1;strokeColor=none;fillColor=none;fontStyle=1;fontSize=16;" vertex="1" parent="1">
          <mxGeometry x="370" y="200" width="110" height="30" as="geometry" />
        </mxCell>
        <mxCell id="YpNG4ICl5QxOobUSiyVP-9" value="Monolithic 2" style="text;html=1;align=center;verticalAlign=middle;resizable=0;points=[];autosize=1;strokeColor=none;fillColor=none;fontStyle=1;fontSize=16;" vertex="1" parent="1">
          <mxGeometry x="535" y="200" width="110" height="30" as="geometry" />
        </mxCell>
        <mxCell id="YpNG4ICl5QxOobUSiyVP-10" style="edgeStyle=orthogonalEdgeStyle;rounded=0;orthogonalLoop=1;jettySize=auto;html=1;entryX=0.5;entryY=0;entryDx=0;entryDy=0;entryPerimeter=0;" edge="1" parent="1" source="YpNG4ICl5QxOobUSiyVP-3" target="YpNG4ICl5QxOobUSiyVP-5">
          <mxGeometry relative="1" as="geometry" />
        </mxCell>
        <mxCell id="YpNG4ICl5QxOobUSiyVP-11" value="Application" style="rounded=0;whiteSpace=wrap;html=1;verticalAlign=top;" vertex="1" parent="1">
          <mxGeometry x="695" y="240" width="120" height="330" as="geometry" />
        </mxCell>
        <mxCell id="YpNG4ICl5QxOobUSiyVP-12" value="RDBMS" style="shape=cylinder3;whiteSpace=wrap;html=1;boundedLbl=1;backgroundOutline=1;size=15;" vertex="1" parent="1">
          <mxGeometry x="722.5" y="610" width="65" height="80" as="geometry" />
        </mxCell>
        <mxCell id="YpNG4ICl5QxOobUSiyVP-15" value="Monolithic 3" style="text;html=1;align=center;verticalAlign=middle;resizable=0;points=[];autosize=1;strokeColor=none;fillColor=none;fontStyle=1;fontSize=16;" vertex="1" parent="1">
          <mxGeometry x="700" y="200" width="110" height="30" as="geometry" />
        </mxCell>
        <mxCell id="YpNG4ICl5QxOobUSiyVP-16" style="edgeStyle=orthogonalEdgeStyle;rounded=0;orthogonalLoop=1;jettySize=auto;html=1;entryX=0.5;entryY=0;entryDx=0;entryDy=0;entryPerimeter=0;" edge="1" parent="1" source="YpNG4ICl5QxOobUSiyVP-11" target="YpNG4ICl5QxOobUSiyVP-12">
          <mxGeometry relative="1" as="geometry" />
        </mxCell>
        <mxCell id="YpNG4ICl5QxOobUSiyVP-17" value="Application" style="rounded=0;whiteSpace=wrap;html=1;verticalAlign=top;" vertex="1" parent="1">
          <mxGeometry x="860" y="240" width="230" height="330" as="geometry" />
        </mxCell>
        <mxCell id="YpNG4ICl5QxOobUSiyVP-18" value="RDBMS" style="shape=cylinder3;whiteSpace=wrap;html=1;boundedLbl=1;backgroundOutline=1;size=15;" vertex="1" parent="1">
          <mxGeometry x="942.5" y="610" width="65" height="80" as="geometry" />
        </mxCell>
        <mxCell id="YpNG4ICl5QxOobUSiyVP-21" value="Monolithic 4" style="text;html=1;align=center;verticalAlign=middle;resizable=0;points=[];autosize=1;strokeColor=none;fillColor=none;fontStyle=1;fontSize=16;" vertex="1" parent="1">
          <mxGeometry x="920" y="200" width="110" height="30" as="geometry" />
        </mxCell>
        <mxCell id="YpNG4ICl5QxOobUSiyVP-22" style="edgeStyle=orthogonalEdgeStyle;rounded=0;orthogonalLoop=1;jettySize=auto;html=1;entryX=0.5;entryY=0;entryDx=0;entryDy=0;entryPerimeter=0;" edge="1" parent="1" source="YpNG4ICl5QxOobUSiyVP-17" target="YpNG4ICl5QxOobUSiyVP-18">
          <mxGeometry relative="1" as="geometry" />
        </mxCell>
        <mxCell id="YpNG4ICl5QxOobUSiyVP-27" style="edgeStyle=orthogonalEdgeStyle;rounded=0;orthogonalLoop=1;jettySize=auto;html=1;entryX=0.5;entryY=0;entryDx=0;entryDy=0;" edge="1" parent="1" source="YpNG4ICl5QxOobUSiyVP-23" target="YpNG4ICl5QxOobUSiyVP-25">
          <mxGeometry relative="1" as="geometry" />
        </mxCell>
        <mxCell id="YpNG4ICl5QxOobUSiyVP-23" value="UI" style="rounded=0;whiteSpace=wrap;html=1;" vertex="1" parent="1">
          <mxGeometry x="706.25" y="300" width="97.5" height="40" as="geometry" />
        </mxCell>
        <mxCell id="YpNG4ICl5QxOobUSiyVP-28" style="edgeStyle=orthogonalEdgeStyle;rounded=0;orthogonalLoop=1;jettySize=auto;html=1;entryX=0.5;entryY=0;entryDx=0;entryDy=0;" edge="1" parent="1" source="YpNG4ICl5QxOobUSiyVP-25" target="YpNG4ICl5QxOobUSiyVP-26">
          <mxGeometry relative="1" as="geometry" />
        </mxCell>
        <mxCell id="YpNG4ICl5QxOobUSiyVP-25" value="Business&lt;div&gt;Logic&lt;/div&gt;" style="rounded=0;whiteSpace=wrap;html=1;" vertex="1" parent="1">
          <mxGeometry x="706.25" y="400" width="97.5" height="40" as="geometry" />
        </mxCell>
        <mxCell id="YpNG4ICl5QxOobUSiyVP-26" value="Data Access" style="rounded=0;whiteSpace=wrap;html=1;" vertex="1" parent="1">
          <mxGeometry x="706.25" y="500" width="97.5" height="40" as="geometry" />
        </mxCell>
        <mxCell id="YpNG4ICl5QxOobUSiyVP-34" style="edgeStyle=orthogonalEdgeStyle;rounded=0;orthogonalLoop=1;jettySize=auto;html=1;entryX=0.5;entryY=0;entryDx=0;entryDy=0;" edge="1" parent="1" source="YpNG4ICl5QxOobUSiyVP-30" target="YpNG4ICl5QxOobUSiyVP-31">
          <mxGeometry relative="1" as="geometry" />
        </mxCell>
        <mxCell id="YpNG4ICl5QxOobUSiyVP-30" value="Presentation" style="rounded=0;whiteSpace=wrap;html=1;" vertex="1" parent="1">
          <mxGeometry x="871.25" y="300" width="208.75" height="40" as="geometry" />
        </mxCell>
        <mxCell id="YpNG4ICl5QxOobUSiyVP-35" style="edgeStyle=orthogonalEdgeStyle;rounded=0;orthogonalLoop=1;jettySize=auto;html=1;" edge="1" parent="1" source="YpNG4ICl5QxOobUSiyVP-31" target="YpNG4ICl5QxOobUSiyVP-32">
          <mxGeometry relative="1" as="geometry">
            <Array as="points">
              <mxPoint x="970" y="470" />
              <mxPoint x="920" y="470" />
            </Array>
          </mxGeometry>
        </mxCell>
        <mxCell id="YpNG4ICl5QxOobUSiyVP-36" style="edgeStyle=orthogonalEdgeStyle;rounded=0;orthogonalLoop=1;jettySize=auto;html=1;" edge="1" parent="1" source="YpNG4ICl5QxOobUSiyVP-31" target="YpNG4ICl5QxOobUSiyVP-33">
          <mxGeometry relative="1" as="geometry">
            <Array as="points">
              <mxPoint x="980" y="470" />
              <mxPoint x="1029" y="470" />
            </Array>
          </mxGeometry>
        </mxCell>
        <mxCell id="YpNG4ICl5QxOobUSiyVP-31" value="Business&amp;nbsp;&lt;span style=&quot;background-color: initial;&quot;&gt;Logic&lt;/span&gt;" style="rounded=0;whiteSpace=wrap;html=1;" vertex="1" parent="1">
          <mxGeometry x="871.25" y="400" width="208.75" height="40" as="geometry" />
        </mxCell>
        <mxCell id="YpNG4ICl5QxOobUSiyVP-32" value="Service 1" style="rounded=0;whiteSpace=wrap;html=1;" vertex="1" parent="1">
          <mxGeometry x="871.25" y="500" width="97.5" height="40" as="geometry" />
        </mxCell>
        <mxCell id="YpNG4ICl5QxOobUSiyVP-33" value="Service 2" style="rounded=0;whiteSpace=wrap;html=1;" vertex="1" parent="1">
          <mxGeometry x="980" y="500" width="97.5" height="40" as="geometry" />
        </mxCell>
      </root>
    </mxGraphModel>
  </diagram>
</mxfile>
